<svg width="300" height="78" viewBox="0 0 300 78" fill="none" xmlns="http://www.w3.org/2000/svg">
<g clip-path="url(#clip0)">
<path d="M77.5566 19.0239C76.312 19.0239 75.348 19.4933 74.6652 20.4322C73.9823 21.364 73.6409 22.6657 73.6409 24.3373C73.6409 27.8155 74.9463 29.5548 77.5566 29.5548C78.6521 29.5548 79.9787 29.2809 81.5365 28.7331V31.5073C80.2561 32.0408 78.8262 32.3076 77.2472 32.3076C74.9781 32.3076 73.2425 31.6211 72.0405 30.2483C70.8384 28.8683 70.2373 26.891 70.2373 24.3159C70.2373 22.6942 70.5325 21.2751 71.123 20.0588C71.7132 18.8354 72.5597 17.9 73.6623 17.2527C74.7719 16.5983 76.07 16.2711 77.5566 16.2711C79.0718 16.2711 80.5939 16.6374 82.1233 17.3701L81.0562 20.0588C80.473 19.7814 79.8862 19.5396 79.2958 19.3333C78.7054 19.127 78.1256 19.0239 77.5566 19.0239ZM99.0239 24.2734C99.0239 26.8552 98.3836 28.8398 97.1032 30.2269C95.8229 31.614 93.9878 32.3076 91.5979 32.3076C89.2079 32.3076 87.3726 31.614 86.0922 30.2269C84.8119 28.8398 84.1718 26.8482 84.1718 24.252C84.1718 21.6557 84.8119 19.6747 86.0922 18.309C87.3799 16.9362 89.222 16.2498 91.6192 16.2498C94.0163 16.2498 95.8479 16.9397 97.1139 18.3197C98.3872 19.6996 99.0239 21.6841 99.0239 24.2734ZM87.6394 24.2734C87.6394 26.016 87.9701 27.3284 88.6318 28.2105C89.2932 29.0925 90.282 29.5334 91.5979 29.5334C94.2368 29.5334 95.5561 27.78 95.5561 24.2734C95.5561 20.7594 94.2439 19.0025 91.6192 19.0025C90.3032 19.0025 89.311 19.4471 88.6425 20.3362C87.9737 21.2182 87.6394 22.5306 87.6394 24.2734ZM108.861 32.0941L105.106 19.8561H105.01C105.145 22.3456 105.212 24.0066 105.212 24.8388V32.0941H102.257V16.4952H106.759L110.451 28.4237H110.515L114.431 16.4952H118.933V32.0941H115.85V24.7108C115.85 24.3621 115.853 23.9604 115.861 23.5052C115.875 23.0499 115.924 21.8406 116.01 19.8774H115.914L111.891 32.0941H108.861ZM131.854 32.0941H122.87V16.4952H131.854V19.2052H126.178V22.6302H131.459V25.3402H126.178V29.3627H131.854V32.0941ZM138.427 23.4198H139.494C140.539 23.4198 141.311 23.2454 141.809 22.897C142.307 22.5484 142.556 22.0007 142.556 21.2538C142.556 20.5141 142.3 19.9877 141.788 19.6747C141.282 19.3617 140.496 19.2052 139.429 19.2052H138.427V23.4198ZM138.427 26.1084V32.0941H135.119V16.4952H139.664C141.784 16.4952 143.352 16.8828 144.37 17.6582C145.387 18.4264 145.895 19.5965 145.895 21.1685C145.895 22.086 145.643 22.904 145.138 23.6224C144.633 24.3337 143.918 24.892 142.993 25.2976C145.34 28.8043 146.87 31.0698 147.581 32.0941H143.911L140.187 26.1084H138.427ZM156.17 19.0239C154.925 19.0239 153.961 19.4933 153.279 20.4322C152.596 21.364 152.254 22.6657 152.254 24.3373C152.254 27.8155 153.56 29.5548 156.17 29.5548C157.266 29.5548 158.592 29.2809 160.15 28.7331V31.5073C158.87 32.0408 157.44 32.3076 155.861 32.3076C153.592 32.3076 151.856 31.6211 150.654 30.2483C149.452 28.8683 148.851 26.891 148.851 24.3159C148.851 22.6942 149.146 21.2751 149.736 20.0588C150.327 18.8354 151.173 17.9 152.276 17.2527C153.385 16.5983 154.683 16.2711 156.17 16.2711C157.685 16.2711 159.207 16.6374 160.737 17.3701L159.67 20.0588C159.086 19.7814 158.5 19.5396 157.909 19.3333C157.319 19.127 156.739 19.0239 156.17 19.0239ZM163.479 32.0941V16.4952H166.786V32.0941H163.479ZM180.262 32.0941L179.131 28.3812H173.444L172.313 32.0941H168.75L174.255 16.4312H178.299L183.826 32.0941H180.262ZM178.342 25.607C177.296 22.2425 176.705 20.3398 176.57 19.8988C176.442 19.4577 176.35 19.1092 176.293 18.8531C176.058 19.7636 175.386 22.0149 174.276 25.607H178.342ZM185.799 32.0941V16.4952H189.107V29.3627H195.434V32.0941H185.799ZM198.155 32.0941V16.4952H201.462V32.0941H198.155ZM215.557 32.0941H203.949V29.9495L211.428 19.2266H204.151V16.4952H215.354V18.6291L207.885 29.3627H215.557V32.0941ZM227.592 32.0941L226.461 28.3812H220.774L219.643 32.0941H216.08L221.585 16.4312H225.629L231.157 32.0941H227.592ZM225.672 25.607C224.626 22.2425 224.036 20.3398 223.901 19.8988C223.772 19.4577 223.68 19.1092 223.623 18.8531C223.388 19.7636 222.716 22.0149 221.607 25.607H225.672ZM246.072 24.1452C246.072 26.713 245.339 28.6798 243.874 30.0455C242.417 31.4112 240.307 32.0941 237.546 32.0941H233.13V16.4952H238.026C240.573 16.4952 242.551 17.1673 243.96 18.5117C245.367 19.8561 246.072 21.7339 246.072 24.1452ZM242.635 24.2306C242.635 20.8804 241.156 19.2052 238.197 19.2052H236.437V29.3627H237.855C241.042 29.3627 242.635 27.6519 242.635 24.2306ZM263.462 24.2734C263.462 26.8552 262.823 28.8398 261.544 30.2269C260.262 31.614 258.427 32.3076 256.037 32.3076C253.647 32.3076 251.813 31.614 250.531 30.2269C249.252 28.8398 248.61 26.8482 248.61 24.252C248.61 21.6557 249.252 19.6747 250.531 18.309C251.82 16.9362 253.661 16.2498 256.058 16.2498C258.455 16.2498 260.287 16.9397 261.553 18.3197C262.827 19.6996 263.462 21.6841 263.462 24.2734ZM252.079 24.2734C252.079 26.016 252.409 27.3284 253.072 28.2105C253.732 29.0925 254.722 29.5334 256.037 29.5334C258.676 29.5334 259.996 27.78 259.996 24.2734C259.996 20.7594 258.682 19.0025 256.058 19.0025C254.742 19.0025 253.75 19.4471 253.083 20.3362C252.414 21.2182 252.079 22.5306 252.079 24.2734ZM270.004 23.4198H271.072C272.116 23.4198 272.888 23.2454 273.386 22.897C273.885 22.5484 274.133 22.0007 274.133 21.2538C274.133 20.5141 273.876 19.9877 273.364 19.6747C272.861 19.3617 272.073 19.2052 271.006 19.2052H270.004V23.4198ZM270.004 26.1084V32.0941H266.697V16.4952H271.242C273.361 16.4952 274.93 16.8828 275.947 17.6582C276.965 18.4264 277.472 19.5965 277.472 21.1685C277.472 22.086 277.22 22.904 276.714 23.6224C276.209 24.3337 275.494 24.892 274.57 25.2976C276.917 28.8043 278.446 31.0698 279.159 32.0941H275.487L271.764 26.1084H270.004ZM290.672 32.0941L289.541 28.3812H283.852L282.721 32.0941H279.159L284.663 16.4312H288.707L294.234 32.0941H290.672ZM288.751 25.607C287.704 22.2425 287.114 20.3398 286.98 19.8988C286.85 19.4577 286.759 19.1092 286.702 18.8531C286.468 19.7636 285.794 22.0149 284.685 25.607H288.751ZM76.8526 53.1523H83.0408V61.2398C82.0379 61.5669 81.0919 61.7945 80.2026 61.9227C79.3206 62.0579 78.4174 62.1255 77.4926 62.1255C75.1381 62.1255 73.3386 61.4353 72.0938 60.0555C70.8562 58.6684 70.2373 56.6804 70.2373 54.0913C70.2373 51.5731 70.9557 49.6099 72.3926 48.2017C73.8366 46.7932 75.8353 46.0889 78.389 46.0889C79.9894 46.0889 81.5328 46.4092 83.0194 47.0492L81.9205 49.6953C80.7824 49.1262 79.5981 48.8417 78.3676 48.8417C76.9379 48.8417 75.7925 49.322 74.9319 50.2821C74.0713 51.2424 73.6409 52.5335 73.6409 54.1552C73.6409 55.848 73.9859 57.1427 74.6758 58.0388C75.373 58.9281 76.383 59.3727 77.7061 59.3727C78.396 59.3727 79.0966 59.3014 79.8079 59.1592V55.9049H76.8526V53.1523ZM96.3139 61.912L95.1828 58.1991H89.496L88.365 61.912H84.8012L90.3068 46.2492H94.3507L99.8774 61.912H96.3139ZM94.3932 55.4249C93.3475 52.0605 92.7573 50.1576 92.6221 49.7167C92.494 49.2756 92.4016 48.9271 92.3447 48.671C92.11 49.5815 91.4378 51.8328 90.3282 55.4249H94.3932ZM101.851 61.912V46.3131H105.159V59.1806H111.486V61.912H101.851ZM114.207 61.912V46.3131H117.514V59.1806H123.841V61.912H114.207ZM136.111 61.912L134.98 58.1991H129.293L128.162 61.912H124.599L130.104 46.2492H134.148L139.675 61.912H136.111ZM134.191 55.4249C133.145 52.0605 132.555 50.1576 132.42 49.7167C132.292 49.2756 132.199 48.9271 132.142 48.671C131.908 49.5815 131.235 51.8328 130.126 55.4249H134.191ZM144.956 53.2377H146.023C147.069 53.2377 147.841 53.0633 148.339 52.7149C148.837 52.3664 149.085 51.8185 149.085 51.0717C149.085 50.3319 148.829 49.8057 148.317 49.4927C147.812 49.1797 147.026 49.0231 145.959 49.0231H144.956V53.2377ZM144.956 55.9263V61.912H141.649V46.3131H146.194C148.314 46.3131 149.882 46.7008 150.899 47.476C151.917 48.2442 152.425 49.4144 152.425 50.9863C152.425 51.9039 152.173 52.7219 151.668 53.4403C151.162 54.1516 150.448 54.7099 149.523 55.1156C151.87 58.6222 153.4 60.8877 154.111 61.912H150.441L146.717 55.9263H144.956ZM169.016 53.9631C169.016 56.5309 168.284 58.4977 166.818 59.8634C165.36 61.2291 163.251 61.912 160.491 61.912H156.074V46.3131H160.971C163.518 46.3131 165.495 46.9853 166.904 48.3296C168.312 49.6739 169.016 51.5517 169.016 53.9631ZM165.581 54.0485C165.581 50.6982 164.101 49.0231 161.142 49.0231H159.382V59.1806H160.801C163.987 59.1806 165.581 57.4698 165.581 54.0485ZM186.408 54.0913C186.408 56.6731 185.768 58.6577 184.487 60.0448C183.207 61.4319 181.372 62.1255 178.982 62.1255C176.592 62.1255 174.757 61.4319 173.476 60.0448C172.196 58.6577 171.556 56.6661 171.556 54.0699C171.556 51.4737 172.196 49.4927 173.476 48.127C174.764 46.754 176.606 46.0677 179.003 46.0677C181.4 46.0677 183.232 46.7577 184.498 48.1375C185.771 49.5175 186.408 51.5021 186.408 54.0913ZM175.023 54.0913C175.023 55.8339 175.354 57.1464 176.016 58.0284C176.677 58.9104 177.666 59.3513 178.982 59.3513C181.621 59.3513 182.94 57.5979 182.94 54.0913C182.94 50.5773 181.628 48.8203 179.003 48.8203C177.687 48.8203 176.695 49.2651 176.026 50.1542C175.357 51.0362 175.023 52.3484 175.023 54.0913Z" fill="white"/>
<path d="M65.2129 77.1628V1.52588e-05" stroke="#05848C" stroke-width="5"/>
<path d="M21.8506 43.2473H55.9932V77.39H21.8506V43.2473Z" fill="#79BED6"/>
<path d="M55.9932 0H21.8506V34.1426H55.9932V0Z" fill="#05848C"/>
<path d="M34.1426 18.8923H0V53.0349H34.1426V18.8923Z" fill="#009BAD"/>
</g>
<defs>
<clipPath id="clip0">
<rect width="300" height="77.39" fill="white"/>
</clipPath>
</defs>
</svg>
